<svg xmlns="http://www.w3.org/2000/svg" width="235.5" height="30" viewBox="0 0 235.5 30"><path fill-rule="evenodd" clip-rule="evenodd" fill="#006241" d="M0 7.7C0 3.5 3.5 0 7.7 0h220c4.3 0 7.7 3.5 7.7 7.7v14.5c0 4.3-3.5 7.7-7.7 7.7H7.7C3.5 30 0 26.5 0 22.3V7.7z"/><g fill="#FFF"><path d="M81.3 6.9h2.4c1.8 0 3 .3 3.6.9.6.6.9 1.8.9 3.7v7.3c0 1.9-.3 3.1-.9 3.7-.6.6-1.8.9-3.6.9h-2.4V6.9zm2.2 1.7v13h.5c.7 0 1.2-.1 1.5-.3.2-.2.4-.7.4-1.4v-9.4c0-.7-.1-1.2-.4-1.4-.2-.2-.7-.4-1.5-.4h-.5zM96.4 14.6v8.6h-2l-.1-.9c-.3.4-.5.7-.9.9-.3.2-.7.3-1.1.3-.7 0-1.3-.2-1.6-.7s-.5-1.2-.5-2.2v-2c0-.9.3-1.6.9-2s1.7-.6 3.1-.7v-1.3c0-.7-.1-1.1-.2-1.4s-.3-.2-.7-.2c-.3 0-.5.1-.7.3-.1.2-.2.6-.2 1.1v.5h-2v-.3c0-1.1.2-1.9.7-2.4.5-.5 1.2-.7 2.4-.7 1.1 0 1.8.2 2.3.7s.6 1.3.6 2.4zm-2.1 2.8c-.7 0-1.2.2-1.5.4-.3.2-.4.6-.4 1.1v1.5c0 .6.1 1 .2 1.3.1.2.4.4.7.4.3 0 .6-.1.7-.4.1-.2.2-.7.2-1.3l.1-3zM101.1 8.8v3h1.3v1.4h-1.3v7.5c0 .4.1.7.2.9.1.2.4.2.7.2h.5v1.6h-.2c-.5.1-.9.1-1.1.1-.9 0-1.5-.2-1.8-.6-.3-.4-.5-1.3-.5-2.5v-7.1h-1v-1.4h1V9.6l2.2-.8zM110.2 14.6v8.6h-2l-.1-.9c-.3.4-.5.7-.9.9-.3.2-.7.3-1.1.3-.7 0-1.3-.2-1.6-.7s-.5-1.2-.5-2.2v-2c0-.9.3-1.6.9-2s1.7-.6 3.1-.7v-1.3c0-.7-.1-1.1-.2-1.4s-.4-.3-.7-.3c-.3 0-.5.1-.7.3-.1.2-.2.6-.2 1.1v.5h-2v-.3c0-1.1.2-1.9.7-2.4.5-.5 1.2-.7 2.4-.7 1.1 0 1.8.2 2.3.7s.6 1.4.6 2.5zm-2.2 2.8c-.7 0-1.2.2-1.5.4-.3.2-.4.6-.4 1.1v1.5c0 .6.1 1 .2 1.3.1.2.4.4.7.4.3 0 .6-.1.7-.4.1-.2.2-.7.2-1.3l.1-3zM118.6 6.9h3.1l2.6 16.4H122l-.6-4.2h-2.9l-.7 4.2h-2.1l2.9-16.4zm1.4 1.7l-1.2 8.8h2.4L120 8.6zM132.2 14.4v8.8H130v-8.5c0-.6-.1-1-.2-1.3-.1-.2-.4-.3-.7-.3-.3 0-.6.1-.7.4-.1.2-.2.7-.2 1.2v8.5H126V11.8h2l.1.9c.3-.4.6-.7.9-.9.3-.2.7-.3 1.1-.3.7 0 1.2.2 1.5.6.4.5.6 1.3.6 2.3zM140.3 14.6v8.6h-2l-.1-.9c-.3.4-.5.7-.9.9-.3.2-.7.3-1.1.3-.7 0-1.3-.2-1.6-.7s-.5-1.2-.5-2.2v-2c0-.9.3-1.6.9-2s1.7-.6 3.1-.7v-1.3c0-.7-.1-1.1-.2-1.4-.1-.2-.4-.3-.7-.3-.3 0-.5.1-.7.3-.1.2-.2.6-.2 1.1v.5h-2v-.3c0-1.1.2-1.9.7-2.4.5-.5 1.2-.7 2.4-.7 1.1 0 1.8.2 2.3.7s.6 1.4.6 2.5zm-2.2 2.8c-.7 0-1.2.2-1.5.4s-.4.6-.4 1.1v1.5c0 .6.1 1 .2 1.3.1.2.4.4.7.4.3 0 .6-.1.7-.4.1-.2.2-.7.2-1.3l.1-3zM142.3 6.9h2.1v16.4h-2.1V6.9zM146.1 11.8h2.1l1.1 7.8h.1l1.1-7.8h1.9l-3.2 15.7h-1.9l1-4.6-2.2-11.1zM156.7 8.8v3h1.3v1.4h-1.3v7.5c0 .4.1.7.2.9.1.2.4.2.7.2h.5v1.6h-.2c-.5.1-.9.1-1.1.1-.9 0-1.5-.2-1.8-.6-.3-.4-.5-1.3-.5-2.5v-7.1h-1v-1.4h1V9.6l2.2-.8zM159.6 6.9h2.3V9h-2.3V6.9zm0 4.9h2.1v11.4h-2.1V11.8zM169.8 14.9v.7h-2.2v-.9c0-.6-.1-1.1-.2-1.3s-.3-.3-.7-.3c-.3 0-.5.1-.6.4s-.2.7-.2 1.3v5.7c0 .7.1 1.1.2 1.4.1.2.3.4.6.4s.5-.1.6-.3.2-.7.2-1.4v-1.1h2.2v.9c0 1.1-.2 2-.7 2.5-.5.5-1.2.8-2.3.8-1.1 0-1.9-.3-2.3-.8s-.7-1.6-.7-3.1v-4.1c0-1.5.2-2.5.7-3.1.4-.6 1.2-.8 2.3-.8 1 0 1.8.3 2.2.8.6.3.9 1.2.9 2.3zM177.2 14.6v.5h-2.1v-.6c0-.7-.1-1.1-.2-1.3s-.3-.3-.6-.3-.5.1-.6.3c-.1.2-.2.5-.2.9v.4c0 .2.1.4.2.6s.4.5.7.8l1.7 1.7c.4.4.7.7.8 1.1.2.3.3.7.3 1v.9c0 .9-.2 1.6-.7 2.1s-1.2.7-2.3.7c-1.1 0-1.8-.2-2.2-.7-.4-.5-.6-1.3-.6-2.5v-.8h2v.9c0 .6.1 1 .2 1.3.1.2.3.3.6.3s.6-.1.7-.3c.1-.2.2-.5.2-1v-.4c0-.3-.1-.5-.2-.8-.1-.3-.4-.5-.7-.8l-1.7-1.7c-.5-.5-.8-.9-.9-1.2-.1-.3-.2-.6-.2-1V14c0-.9.2-1.5.7-2s1.2-.7 2.2-.7c1 0 1.7.2 2.1.7s.8 1.5.8 2.6zM189.8 9.8v1.4h-2.3V9.7c0-.5-.1-.9-.2-1.1-.1-.2-.4-.3-.7-.3-.4 0-.6.1-.8.4-.1.2-.2.7-.2 1.4v.8c0 .6.3 1.3.9 2.1l2.1 2.9c.4.6.7 1.1.9 1.5.1.4.2.9.2 1.4v1.1c0 1.3-.3 2.2-.9 2.8-.6.6-1.4.9-2.6.9-1.2 0-2-.2-2.5-.7-.5-.5-.7-1.3-.7-2.6v-1.6h2.3v1.7c0 .6.1 1 .2 1.2s.4.3.8.3.7-.1.8-.4c.2-.3.2-.8.2-1.5v-1c0-.6-.3-1.3-.9-2.2 0 0 0-.1-.1-.1l-2.3-3.1c-.3-.4-.6-.8-.7-1.2s-.2-.8-.2-1.2v-1.1c0-1.2.3-2 .8-2.6.6-.6 1.4-.9 2.5-.9s1.8.2 2.3.7c.8.6 1.1 1.4 1.1 2.5zM198 15.5v2.7h-4v2.3c0 .7.1 1.1.2 1.4.1.2.4.4.7.4.3 0 .6-.1.7-.4s.2-.7.2-1.3v-1h2.2v.7c0 1.2-.2 2-.7 2.6-.5.5-1.3.8-2.4.8-1.2 0-2-.3-2.4-.8-.5-.6-.7-1.6-.7-3.1v-4.1c0-1.5.2-2.5.7-3.1.5-.6 1.3-.8 2.5-.8 1.1 0 1.9.3 2.4.8.4.4.6 1.4.6 2.9zm-2.1-.8c0-.7-.1-1.1-.2-1.4s-.4-.4-.7-.4c-.3 0-.6.1-.7.4-.1.2-.2.7-.2 1.4v2.1h1.9v-2.1zM204.3 11.7v1.7h-.1c-.8 0-1.3.2-1.6.5-.3.3-.5.9-.5 1.7v7.7H200V11.8h2l.1.9c.3-.4.6-.7.9-.8.3-.2.6-.3 1-.3h.1l.2.1zM205.4 11.8h2.1l1 9.4h.1l1.2-9.4h1.9l-1.8 11.4h-2.6l-1.9-11.4zM219.3 15.5v2.7h-4v2.3c0 .7.1 1.1.2 1.4.1.2.4.4.7.4.3 0 .6-.1.7-.4s.2-.7.2-1.3v-1h2.2v.7c0 1.2-.2 2-.7 2.6-.5.5-1.3.8-2.4.8-1.2 0-2-.3-2.4-.8-.5-.6-.7-1.6-.7-3.1v-4.1c0-1.5.2-2.5.7-3.1.5-.6 1.3-.8 2.5-.8 1.1 0 1.9.3 2.4.8.3.4.6 1.4.6 2.9zm-2.2-.8c0-.7-.1-1.1-.2-1.4s-.4-.4-.7-.4c-.3 0-.6.1-.7.4-.1.2-.2.7-.2 1.4v2.1h1.9v-2.1zM225.5 11.7v1.7h-.1c-.8 0-1.3.2-1.6.5-.3.3-.5.9-.5 1.7v7.7h-2.1V11.8h2l.1.9c.3-.4.6-.7.9-.8.3-.2.6-.3 1-.3h.1l.2.1z"/></g><path fill-rule="evenodd" clip-rule="evenodd" fill="#FFF" d="M1.9 8c0-3.4 2.8-6.2 6.2-6.2h57.1c3.4 0 6.2 2.8 6.2 6.2v14c0 3.4-2.8 6.2-6.2 6.2H8c-3.4 0-6.2-2.8-6.2-6.2V8z"/><path d="M54.1 7.7c-1.6-1.6-3.5-2.4-5.9-2.4h-.1c-1.5 0-2.8.4-4.1 1.1-1.3.7-2.3 1.7-3 3-.7 1.3-1.1 2.7-1.1 4.2 0 2.3.8 4.2 2.4 5.8 1.6 1.6 3.6 2.4 5.9 2.4 2.3 0 4.3-.8 5.9-2.4 1.6-1.6 2.4-3.6 2.4-5.9 0-2.3-.8-4.2-2.4-5.8zm-2.6 11.7c-1 .6-2.1.9-3.4.9-1.8 0-3.4-.6-4.7-1.9-1.3-1.3-1.9-2.9-1.9-4.7 0-1.3.3-2.4.9-3.4.6-1 1.4-1.8 2.4-2.4 1-.6 2.1-.9 3.3-.9 1.2 0 2.3.3 3.3.9 1.1.6 1.9 1.4 2.4 2.4.6 1 .9 2.1.9 3.4 0 1.3-.3 2.4-.9 3.4-.4.9-1.2 1.7-2.3 2.3z"/><g fill="#F37B20"><path d="M31.8 6.3H30l-4.3 10.9-4.3-11.7-4.6 11.7-3.9-10.9h-1.8l5.6 15.3 4.6-11.7 4.4 11.7 5.5-13.8M38.6 14.3c-.7-.6-1.5-1.1-2.3-1.4l-.4-.2-.4-.2c-.7-.4-1.4-.7-1.8-1.1-.5-.3-.7-.7-.7-1.4 0-.6.2-1.2.7-1.6.5-.4 1.1-.6 1.8-.6.5 0 .8.1 1.2.3.3.2.6.5.9.9l.2.2.2.2 1.3-.8c-.4-.7-.9-1.3-1.6-1.7-.6-.4-1.3-.6-2-.6-1.2 0-2.3.4-3 1.1-.8.7-1.2 1.6-1.2 2.7 0 1 .4 1.8 1.1 2.4.7.6 1.5 1 2.3 1.4l.1.1.3.1c.8.4 1.5.8 2 1.2.6.4.8.9.8 1.7 0 .8-.3 1.6-.8 2.1-.6.6-1.3.8-2.1.8s-1.4-.2-1.9-.7c-.5-.5-.8-1.1-1-2l-1 .3-.6.2c.1.6.3 1.1.6 1.6s.6.9 1 1.2c.8.6 1.8 1 3 1 1.3 0 2.3-.4 3.2-1.3.9-.9 1.3-1.9 1.3-3.2-.1-1.2-.5-2.1-1.2-2.7z"/></g><path fill="#F37B20" d="M51.5 19.4c-1 .6-2.1.9-3.4.9-1.8 0-3.4-.6-4.7-1.9-1.3-1.3-1.9-2.9-1.9-4.7 0-1.3.3-2.4.9-3.4.6-1 1.4-1.8 2.4-2.4 1-.6 2.1-.9 3.3-.9 1.2 0 2.3.3 3.3.9 1.1.6 1.9 1.4 2.4 2.4.6 1 .9 2.1.9 3.4 0 1.3-.3 2.4-.9 3.4-.4.9-1.2 1.7-2.3 2.3z"/><path fill="#FFF" d="M48.2 10.4l2.9 7.1L53 14h1.9v-.4-.5h-2.4l-1.2 2.2-3-7.3-2.7 6h-4c0 .3 0 .7.1 1h4.5l2-4.6z"/><g><path d="M62 24.1h-5.5l3-3.2c.9-1 1.6-1.8 1.9-2.4.3-.6.5-1.2.5-1.9 0-1-.3-1.8-1-2.5S59.3 13 58.2 13c-.4 0-.8.1-1.2.2v1.2c.3-.2.7-.2 1.1-.2.7 0 1.4.2 1.9.7.5.5.8 1.1.8 1.8 0 .5-.1 1-.4 1.5-.3.5-.9 1.2-1.8 2.2l-4.6 5h8c0-.2-.1-.4-.1-.6.1-.3.1-.5.1-.7z"/></g></svg>